<svg xmlns="http://www.w3.org/2000/svg" xmlns:xlink="http://www.w3.org/1999/xlink" width="464" height="692pt" viewBox="0 0 348.2 692"><g id="graph0" class="graph" transform="scale(1 1) rotate(0) translate(4 688)"><title>G</title><polygon fill="#fff" stroke="none" points="-4 4 -4 -688 344.196 -688 344.196 4 -4 4"/><g id="node1" class="node"><title>0</title><ellipse cx="95" cy="-666" fill="none" stroke="#000" rx="38.021" ry="18"/><text x="95" y="-662.3" font-family="Times,serif" font-size="14" text-anchor="middle">A,E,0,0</text></g><g id="node2" class="node"><title>1</title><ellipse cx="178" cy="-594" fill="none" stroke="#000" rx="52.468" ry="18"/><text x="178" y="-590.3" font-family="Times,serif" font-size="14" text-anchor="middle">B,D,1.1,2.2</text></g><g id="edge1" class="edge"><title>0--1</title><path fill="none" stroke="#000" d="M113.01,-649.811C126.646,-638.311 145.326,-622.556 159.161,-610.888"/></g><g id="node6" class="node"><title>5</title><ellipse cx="34" cy="-90" fill="none" stroke="#000" rx="34.171" ry="18"/><text x="34" y="-86.3" font-family="Times,serif" font-size="14" text-anchor="middle">a,e,0,0</text></g><g id="edge6" class="edge"><title>0--5</title><path fill="none" stroke="#000" d="M78.2067,-649.772C53.4351,-625.549 10,-575.58 10,-523 10,-523 10,-523 10,-233 10,-187.246 22.264,-134.343 29.2584,-107.893"/></g><g id="node3" class="node"><title>2</title><ellipse cx="259" cy="-522" fill="none" stroke="#000" rx="51.493" ry="18"/><text x="259" y="-518.3" font-family="Times,serif" font-size="14" text-anchor="middle">C,C,2.2,4.4</text></g><g id="edge2" class="edge"><title>1--2</title><path fill="none" stroke="#000" d="M196.38,-577.116C209.543,-565.741 227.202,-550.479 240.412,-539.064"/></g><g id="node7" class="node"><title>6</title><ellipse cx="179" cy="-234" fill="none" stroke="#000" rx="49.094" ry="18"/><text x="179" y="-230.3" font-family="Times,serif" font-size="14" text-anchor="middle">b,d,3.3,4.4</text></g><g id="edge7" class="edge"><title>1--6</title><path fill="none" stroke="#000" d="M178.048,-575.733C178.218,-515.115 178.784,-312.44 178.952,-252.094"/></g><g id="node4" class="node"><title>3</title><ellipse cx="259" cy="-450" fill="none" stroke="#000" rx="52.468" ry="18"/><text x="259" y="-446.3" font-family="Times,serif" font-size="14" text-anchor="middle">D,B,3.3,6.6</text></g><g id="edge3" class="edge"><title>2--3</title><path fill="none" stroke="#000" d="M259,-503.697C259,-492.846 259,-478.917 259,-468.104"/></g><g id="node8" class="node"><title>7</title><ellipse cx="96" cy="-18" fill="none" stroke="#000" rx="48.144" ry="18"/><text x="96" y="-14.3" font-family="Times,serif" font-size="14" text-anchor="middle">c,c,6.6,8.8</text></g><g id="edge8" class="edge"><title>2--7</title><path fill="none" stroke="#000" d="M282.9,-505.843C295.782,-496.461 310.866,-483.298 320,-468 340.783,-433.19 340,-419.542 340,-379 340,-379 340,-379 340,-161 340,-69.8368 211.194,-36.1843 140.753,-24.5967"/></g><g id="node5" class="node"><title>4</title><ellipse cx="95" cy="-378" fill="none" stroke="#000" rx="51.493" ry="18"/><text x="95" y="-374.3" font-family="Times,serif" font-size="14" text-anchor="middle">E,A,4.4,8.8</text></g><g id="edge4" class="edge"><title>3--4</title><path fill="none" stroke="#000" d="M227.379,-435.503C198.245,-423.068 155.259,-404.72 126.245,-392.336"/></g><g id="node9" class="node"><title>8</title><ellipse cx="179" cy="-162" fill="none" stroke="#000" rx="53.418" ry="18"/><text x="179" y="-158.3" font-family="Times,serif" font-size="14" text-anchor="middle">d,b,9.9,13.2</text></g><g id="edge9" class="edge"><title>3--8</title><path fill="none" stroke="#000" d="M261.398,-431.779C266.177,-391.554 273.514,-289.279 237,-216 229.335,-200.617 215.165,-187.538 202.75,-178.221"/></g><g id="edge5" class="edge"><title>4--0</title><path fill="none" stroke="#000" d="M95,-396.306C95,-447.407 95,-597.218 95,-647.966"/></g><g id="node10" class="node"><title>9</title><ellipse cx="95" cy="-306" fill="none" stroke="#000" rx="57.293" ry="18"/><text x="95" y="-302.3" font-family="Times,serif" font-size="14" text-anchor="middle">e,a,13.2,17.6</text></g><g id="edge10" class="edge"><title>4--9</title><path fill="none" stroke="#000" d="M95,-359.697C95,-348.846 95,-334.917 95,-324.104"/></g><g id="edge11" class="edge"><title>5--7</title><path fill="none" stroke="#000" d="M47.7598,-73.4647C57.7489,-62.1868 71.2397,-46.9552 81.4148,-35.4672"/></g><g id="edge12" class="edge"><title>6--8</title><path fill="none" stroke="#000" d="M179,-215.697C179,-204.846 179,-190.917 179,-180.104"/></g><g id="edge13" class="edge"><title>7--9</title><path fill="none" stroke="#000" d="M95.9395,-36.3065C95.7608,-87.4066 95.237,-237.218 95.0596,-287.966"/></g><g id="edge14" class="edge"><title>8--5</title><path fill="none" stroke="#000" d="M149.657,-146.834C122.845,-133.891 83.652,-114.97 58.4845,-102.82"/></g><g id="edge15" class="edge"><title>9--6</title><path fill="none" stroke="#000" d="M114.482,-288.765C128.247,-277.294 146.592,-262.007 160.201,-250.666"/></g></g></svg>