<svg xmlns="http://www.w3.org/2000/svg" xmlns:xlink="http://www.w3.org/1999/xlink" width="508" height="656" viewBox="0 0 381 492"><g id="graph0" class="graph" transform="scale(1 1) rotate(0) translate(4 488)"><title>G</title><polygon fill="#fff" stroke="none" points="-4 4 -4 -488 377 -488 377 4 -4 4"/><g id="node1" class="node"><title>0</title><ellipse cx="108" cy="-412" fill="none" stroke="#000" rx="36" ry="72"/><text x="108" y="-408.3" font-family="Times,serif" font-size="14" text-anchor="middle">Stable</text></g><g id="edge1" class="edge"><title>0-&gt;0</title><path fill="none" stroke="#000" d="M143.058,-430.347C153.689,-429.887 162,-423.771 162,-412 162,-404.275 158.421,-398.986 152.956,-396.132"/><polygon fill="#000" stroke="#000" points="153.608 -392.688 143.058 -393.653 151.908 -399.478 153.608 -392.688"/><text x="173" y="-408.3" font-family="Times,serif" font-size="14" text-anchor="middle">Red</text></g><g id="node2" class="node"><title>1</title><ellipse cx="108" cy="-144" fill="none" stroke="#000" rx="108" ry="144"/><text x="108" y="-140.3" font-family="Times,serif" font-size="14" text-anchor="middle">Not$$$SPACE$$$unstable</text></g><g id="edge2" class="edge"><title>0-&gt;1</title><path fill="none" stroke="#000" d="M85.9803,-354.726C82.6656,-344.015 79.7681,-332.781 78,-322 76.3921,-312.196 75.6498,-302.09 75.5823,-291.908"/><polygon fill="#000" stroke="#000" points="79.085 -291.76 75.733 -281.71 72.085 -291.657 79.085 -291.76"/><text x="98" y="-310.3" font-family="Times,serif" font-size="14" text-anchor="middle">Orange</text></g><g id="edge3" class="edge"><title>1-&gt;0</title><path fill="none" stroke="#000" d="M118.834,-287.494C118.874,-299.167 118.628,-310.784 118,-322 117.827,-325.083 117.621,-328.223 117.388,-331.393"/><polygon fill="#000" stroke="#000" points="113.881 -331.335 116.558 -341.586 120.858 -331.903 113.881 -331.335"/><text x="191" y="-310.3" font-family="Times,serif" font-size="14" text-anchor="middle">Yellow$$$SPACE$$$cold</text></g><g id="edge4" class="edge"><title>1-&gt;1</title><path fill="none" stroke="#000" d="M214.17,-171.011C226.202,-165.953 234,-156.949 234,-144 234,-134.693 229.971,-127.424 223.238,-122.193"/><polygon fill="#000" stroke="#000" points="224.585 -118.931 214.17 -116.989 221.101 -125.002 224.585 -118.931"/><text x="303.5" y="-140.3" font-family="Times,serif" font-size="14" text-anchor="middle">Green$$$SPACE$$$cold</text></g></g></svg>