<svg xmlns="http://www.w3.org/2000/svg" xmlns:xlink="http://www.w3.org/1999/xlink" width="62pt" height="308pt" viewBox="0 0 62 308"><g id="graph0" class="graph" transform="scale(1 1) rotate(0) translate(4 304)"><title>G</title><polygon fill="#fff" stroke="none" points="-4 4 -4 -304 58 -304 58 4 -4 4"/><g id="node1" class="node"><title>0</title><ellipse cx="27" cy="-282" fill="none" stroke="#000" rx="27" ry="18"/><text x="27" y="-278.3" font-family="Times,serif" font-size="14" text-anchor="middle">A</text></g><g id="node2" class="node"><title>1</title><ellipse cx="27" cy="-194" fill="none" stroke="#000" rx="27" ry="18"/><text x="27" y="-190.3" font-family="Times,serif" font-size="14" text-anchor="middle">B</text></g><g id="edge1" class="edge"><title>0--1</title><path fill="none" stroke="#000" d="M27,-263.597C27,-248.578 27,-227.009 27,-212.084"/><text x="30.5" y="-234.3" font-family="Times,serif" font-size="14" text-anchor="middle">1</text></g><g id="node3" class="node"><title>2</title><ellipse cx="27" cy="-106" fill="none" stroke="#000" rx="27" ry="18"/><text x="27" y="-102.3" font-family="Times,serif" font-size="14" text-anchor="middle">C</text></g><g id="edge2" class="edge"><title>1--2</title><path fill="none" stroke="#000" d="M27,-175.597C27,-160.578 27,-139.009 27,-124.084"/><text x="30.5" y="-146.3" font-family="Times,serif" font-size="14" text-anchor="middle">2</text></g><g id="node4" class="node"><title>3</title><ellipse cx="27" cy="-18" fill="none" stroke="#000" rx="27" ry="18"/><text x="27" y="-14.3" font-family="Times,serif" font-size="14" text-anchor="middle">D</text></g><g id="edge3" class="edge"><title>2--3</title><path fill="none" stroke="#000" d="M27,-87.5966C27,-72.5778 27,-51.009 27,-36.084"/><text x="30.5" y="-58.3" font-family="Times,serif" font-size="14" text-anchor="middle">3</text></g></g></svg>