<svg xmlns="http://www.w3.org/2000/svg" xmlns:xlink="http://www.w3.org/1999/xlink" width="242pt" height="476pt" viewBox="0 0 242 476"><g id="graph0" class="graph" transform="scale(1 1) rotate(0) translate(4 472)"><title>G</title><polygon fill="#fff" stroke="none" points="-4 4 -4 -472 238 -472 238 4 -4 4"/><g id="node1" class="node"><title>0</title><ellipse cx="108" cy="-396" fill="none" stroke="#000" rx="36" ry="72"/><text x="108" y="-392.3" font-family="Times,serif" font-size="14" text-anchor="middle">Sunny</text></g><g id="edge1" class="edge"><title>0-&gt;0</title><path fill="none" stroke="#000" d="M135.784,-441.854C149.64,-448.199 162,-432.914 162,-396 162,-368.603 155.192,-353.12 146.016,-349.552"/><polygon fill="#000" stroke="#000" points="145.564 -346.072 135.784 -350.146 145.97 -353.06 145.564 -346.072"/></g><g id="node2" class="node"><title>1</title><ellipse cx="108" cy="-144" fill="none" stroke="#000" rx="108" ry="144"/><text x="108" y="-140.3" font-family="Times,serif" font-size="14" text-anchor="middle">Not$$$SPACE$$$rainy</text></g><g id="edge2" class="edge"><title>0-&gt;1</title><path fill="none" stroke="#000" d="M101.869,-325.029C101.662,-316.436 101.508,-307.41 101.405,-298.167"/><polygon fill="#000" stroke="#000" points="104.904 -298.031 101.313 -288.063 97.904 -298.095 104.904 -298.031"/></g><g id="edge3" class="edge"><title>1-&gt;0</title><path fill="none" stroke="#000" d="M114.687,-288.063C114.623,-297.235 114.509,-306.274 114.346,-314.978"/><polygon fill="#000" stroke="#000" points="110.845 -314.956 114.131 -325.029 117.844 -315.106 110.845 -314.956"/></g><g id="edge4" class="edge"><title>1-&gt;1</title><path fill="none" stroke="#000" d="M211.805,-185.41C225.17,-178.229 234,-164.426 234,-144 234,-128.202 228.718,-116.365 220.141,-108.491"/><polygon fill="#000" stroke="#000" points="221.989 -105.511 211.805 -102.59 217.945 -111.224 221.989 -105.511"/></g></g></svg>