<svg xmlns="http://www.w3.org/2000/svg" xmlns:xlink="http://www.w3.org/1999/xlink" width="205pt" height="176" viewBox="0 0 205 132"><g id="graph0" class="graph" transform="scale(1 1) rotate(0) translate(4 128)"><title>G</title><polygon fill="#fff" stroke="none" points="-4 4 -4 -128 201 -128 201 4 -4 4"/><g id="node1" class="node"><title>0</title><ellipse cx="56" cy="-106" fill="none" stroke="#000" rx="34.171" ry="18"/><text x="56" y="-102.3" font-family="Times,serif" font-size="14" text-anchor="middle">Happy</text></g><g id="edge1" class="edge"><title>0-&gt;0</title><path fill="none" stroke="#000" d="M86.7043,-114.225C98.3595,-114.543 108,-111.801 108,-106 108,-102.012 103.443,-99.4698 96.8081,-98.3735"/><polygon fill="#000" stroke="#000" points="96.894 -94.873 86.704 -97.775 96.48 -101.86 96.894 -94.873"/><text x="121.5" y="-102.3" font-family="Times,serif" font-size="14" text-anchor="middle">Fruit</text></g><g id="node2" class="node"><title>1</title><ellipse cx="56" cy="-18" fill="none" stroke="#000" rx="56.317" ry="18"/><text x="56" y="-14.3" font-family="Times,serif" font-size="14" text-anchor="middle">Not unhappy</text></g><g id="edge2" class="edge"><title>0-&gt;1</title><path fill="none" stroke="#000" d="M31.4853,-92.9589C22.729,-87.2944 13.8392,-79.6373 9,-70 3.40271,-58.853 10.0318,-48.3762 19.9087,-39.8525"/><polygon fill="#000" stroke="#000" points="22.108 -42.577 27.946 -33.736 17.869 -37.007 22.108 -42.577"/><text x="45.5" y="-58.3" font-family="Times,serif" font-size="14" text-anchor="middle">No chocolate</text></g><g id="edge3" class="edge"><title>1-&gt;0</title><path fill="none" stroke="#000" d="M71.9963,-35.4419C79.4951,-45.1725 85.9951,-57.9225 82,-70 80.726,-73.8515 78.8458,-77.6244 76.6693,-81.1827"/><polygon fill="#000" stroke="#000" points="73.706 -79.313 70.824 -89.509 79.435 -83.335 73.706 -79.313"/><text x="110.5" y="-58.3" font-family="Times,serif" font-size="14" text-anchor="middle">Chocolate</text></g><g id="edge4" class="edge"><title>1-&gt;1</title><path fill="none" stroke="#000" d="M106.15,-26.1891C119.695,-25.757 130,-23.0273 130,-18 130,-14.308 124.443,-11.8552 116.126,-10.6416"/><polygon fill="#000" stroke="#000" points="116.406 -7.153 106.15 -9.811 115.825 -14.129 116.406 -7.153"/><text x="163.5" y="-14.3" font-family="Times,serif" font-size="14" text-anchor="middle">Other candy</text></g></g></svg>