<svg xmlns="http://www.w3.org/2000/svg" xmlns:xlink="http://www.w3.org/1999/xlink" width="89pt" height="188pt" viewBox="0 0 89 188"><g id="graph0" class="graph" transform="scale(1 1) rotate(0) translate(4 184)"><title>G</title><polygon fill="#fff" stroke="none" points="-4 4 -4 -184 85 -184 85 4 -4 4"/><g id="node1" class="node"><title>0</title><ellipse cx="54" cy="-162" fill="none" stroke="#000" rx="27" ry="18"/><text x="54" y="-158.3" font-family="Times,serif" font-size="14" text-anchor="middle">0</text></g><g id="node2" class="node"><title>1</title><ellipse cx="27" cy="-90" fill="none" stroke="#000" rx="27" ry="18"/><text x="27" y="-86.3" font-family="Times,serif" font-size="14" text-anchor="middle">1</text></g><g id="edge1" class="edge"><title>0--1</title><path fill="none" stroke="#000" d="M47.6014,-144.411C43.3597,-133.414 37.8106,-119.027 33.5403,-107.956"/></g><g id="node3" class="node"><title>2</title><ellipse cx="54" cy="-18" fill="none" stroke="#000" rx="27" ry="18"/><text x="54" y="-14.3" font-family="Times,serif" font-size="14" text-anchor="middle">2</text></g><g id="edge2" class="edge"><title>1--2</title><path fill="none" stroke="#000" d="M33.3986,-72.411C37.6403,-61.4141 43.1894,-47.0274 47.4597,-35.9562"/></g><g id="edge3" class="edge"><title>2--0</title><path fill="none" stroke="#000" d="M57.6538,-36.0925C59.6758,-46.4315 61.9808,-59.9098 63,-72 64.3441,-87.9434 64.3441,-92.0566 63,-108 61.9808,-120.09 59.6758,-133.569 57.6538,-143.908"/></g></g></svg>