<svg xmlns="http://www.w3.org/2000/svg" xmlns:xlink="http://www.w3.org/1999/xlink" width="538pt" height="520" viewBox="0 0 538 390"><g id="graph0" class="graph" transform="scale(1 1) rotate(0) translate(4 386)"><title>G</title><polygon fill="#fff" stroke="none" points="-4 4 -4 -386 534 -386 534 4 -4 4"/><g id="node1" class="node"><title>0</title><ellipse cx="146" cy="-235" fill="none" stroke="#000" rx="146.331" ry="146.774"/><text x="146" y="-231.3" font-family="Times,serif" font-size="14" text-anchor="middle">Sunny,Yellow$$$SPACE$$$thing,1,2</text></g><g id="edge1" class="edge"><title>0-&gt;0</title><path fill="none" stroke="#000" d="M290.473,-259.926C302.511,-254.562 310,-246.254 310,-235 310,-226.911 306.131,-220.344 299.485,-215.298"/><polygon fill="#000" stroke="#000" points="300.88 -212.061 290.473 -210.074 297.369 -218.118 300.88 -212.061"/><text x="420" y="-231.3" font-family="Times,serif" font-size="14" text-anchor="middle">A$$$SPACE$$$to$$$SPACE$$$A,,1,1</text></g><g id="node2" class="node"><title>1</title><ellipse cx="146" cy="-18" fill="none" stroke="#000" rx="140.082" ry="18"/><text x="146" y="-14.3" font-family="Times,serif" font-size="14" text-anchor="middle">Rainy,Grey$$$SPACE$$$things,3,4</text></g><g id="edge2" class="edge"><title>0-&gt;1</title><path fill="none" stroke="#000" d="M34.4832,-139.21C14.5293,-111.317 5.71877,-81.0416 26,-54 31.2877,-46.9498 37.9174,-41.2556 45.3304,-36.6646"/><polygon fill="#000" stroke="#000" points="47.238 -39.612 54.359 -31.767 43.9 -33.459 47.238 -39.612"/><text x="136" y="-58.3" font-family="Times,serif" font-size="14" text-anchor="middle">A$$$SPACE$$$to$$$SPACE$$$B,,1,1</text></g><g id="edge3" class="edge"><title>1-&gt;0</title><path fill="none" stroke="#000" d="M220.865,-33.3048C230.728,-38.2946 239.614,-44.999 246,-54 260.299,-74.1541 259.585,-96.5481 250.923,-118.503"/><polygon fill="#000" stroke="#000" points="247.619 -117.319 246.744 -127.877 254.012 -120.168 247.619 -117.319"/><text x="363" y="-58.3" font-family="Times,serif" font-size="14" text-anchor="middle">B$$$SPACE$$$to$$$SPACE$$$A,,1,1</text></g><g id="edge4" class="edge"><title>1-&gt;1</title><path fill="none" stroke="#000" d="M274.017,-25.3828C291.974,-24.1777 304,-21.7168 304,-18 304,-15.0382 296.363,-12.8738 284.175,-11.507"/><polygon fill="#000" stroke="#000" points="284.285 -8.003 274.017 -10.617 283.674 -14.977 284.285 -8.003"/><text x="413.5" y="-14.3" font-family="Times,serif" font-size="14" text-anchor="middle">B$$$SPACE$$$to$$$SPACE$$$B,,1,1</text></g></g></svg>