<svg xmlns="http://www.w3.org/2000/svg" xmlns:xlink="http://www.w3.org/1999/xlink" width="136" height="116pt" viewBox="0 0 102 116"><g id="graph0" class="graph" transform="scale(1 1) rotate(0) translate(4 112)"><title>G</title><polygon fill="#fff" stroke="none" points="-4 4 -4 -112 98 -112 98 4 -4 4"/><g id="node1" class="node"><title>0</title><ellipse cx="38" cy="-90" fill="none" stroke="#000" rx="30.321" ry="18"/><text x="38" y="-86.3" font-family="Times,serif" font-size="14" text-anchor="middle">Good</text></g><g id="edge1" class="edge"><title>0-&gt;0</title><path fill="none" stroke="#000" d="M59.7204,-102.547C73.1855,-105.573 86,-101.391 86,-90 86,-81.546 78.9413,-77.0626 69.7966,-76.5497"/><polygon fill="#000" stroke="#000" points="69.368 -73.074 59.72 -77.453 69.993 -80.046 69.368 -73.074"/></g><g id="node2" class="node"><title>1</title><ellipse cx="38" cy="-18" fill="none" stroke="#000" rx="38.495" ry="18"/><text x="38" y="-14.3" font-family="Times,serif" font-size="14" text-anchor="middle">Not bad</text></g><g id="edge2" class="edge"><title>0-&gt;1</title><path fill="none" stroke="#000" d="M32.1218,-72.055C31.3037,-64.3456 31.0614,-55.0269 31.3949,-46.3642"/><polygon fill="#000" stroke="#000" points="34.894 -46.492 32.087 -36.275 27.911 -46.012 34.894 -46.492"/></g><g id="edge3" class="edge"><title>1-&gt;0</title><path fill="none" stroke="#000" d="M43.9128,-36.2753C44.7145,-44.03 44.9404,-53.3618 44.5906,-62.0054"/><polygon fill="#000" stroke="#000" points="41.094 -61.833 43.878 -72.055 48.077 -62.328 41.094 -61.833"/></g><g id="edge4" class="edge"><title>1-&gt;1</title><path fill="none" stroke="#000" d="M65.0821,-30.854C80.1367,-33.2534 94,-28.9688 94,-18 94,-9.60205 85.8736,-5.12219 75.3079,-4.56041"/><polygon fill="#000" stroke="#000" points="74.866 -1.08 65.082 -5.146 75.266 -8.068 74.866 -1.08"/></g></g></svg>