<svg xmlns="http://www.w3.org/2000/svg" xmlns:xlink="http://www.w3.org/1999/xlink" width="260pt" height="332pt" viewBox="0 0 260 332"><g id="graph0" class="graph" transform="scale(1 1) rotate(0) translate(4 328)"><title>G</title><polygon fill="#fff" stroke="none" points="-4 4 -4 -328 256 -328 256 4 -4 4"/><g id="node1" class="node"><title>0</title><ellipse cx="172" cy="-250" fill="none" stroke="#000" rx="73.165" ry="73.387"/><text x="172" y="-246.3" font-family="Times,serif" font-size="14" text-anchor="middle">Karen,red,1.1,2.2</text></g><g id="node2" class="node"><title>1</title><ellipse cx="83" cy="-106" fill="none" stroke="#000" rx="83.289" ry="18"/><text x="83" y="-102.3" font-family="Times,serif" font-size="14" text-anchor="middle">Kristel,black,3.3,4.4</text></g><g id="edge1" class="edge"><title>0--1</title><path fill="none" stroke="#000" d="M133.222,-187.13C118.795,-164.11 103.551,-139.789 93.694,-124.062"/><text x="131" y="-146.3" font-family="Times,serif" font-size="14" text-anchor="middle">1,,1,1</text></g><g id="node3" class="node"><title>2</title><ellipse cx="160" cy="-18" fill="none" stroke="#000" rx="91.939" ry="18"/><text x="160" y="-14.3" font-family="Times,serif" font-size="14" text-anchor="middle">Kathleen,blond,5.5,6.6</text></g><g id="edge2" class="edge"><title>1--2</title><path fill="none" stroke="#000" d="M98.2127,-88.0092C111.712,-72.9322 131.329,-51.0218 144.819,-35.9555"/><text x="145" y="-58.3" font-family="Times,serif" font-size="14" text-anchor="middle">2,,1,1</text></g><g id="edge3" class="edge"><title>2--0</title><path fill="none" stroke="#000" d="M164.795,-36.13C168.415,-49.9909 173.075,-70.0824 175,-88 178.106,-116.908 178.193,-148.9 177.202,-176.698"/><text x="193" y="-102.3" font-family="Times,serif" font-size="14" text-anchor="middle">3,,1,1</text></g></g></svg>