<svg xmlns="http://www.w3.org/2000/svg" xmlns:xlink="http://www.w3.org/1999/xlink" width="408" height="220pt" viewBox="0 0 306 220"><g id="graph0" class="graph" transform="scale(1 1) rotate(0) translate(4 216)"><title>G</title><polygon fill="#fff" stroke="none" points="-4 4 -4 -216 302 -216 302 4 -4 4"/><g id="node1" class="node"><title>0</title><ellipse cx="163" cy="-194" fill="none" stroke="#000" rx="61.142" ry="18"/><text x="163" y="-190.3" font-family="Times,serif" font-size="14" text-anchor="middle">top,source,0,0</text></g><g id="node2" class="node"><title>1</title><ellipse cx="74" cy="-106" fill="none" stroke="#000" rx="74.615" ry="18"/><text x="74" y="-102.3" font-family="Times,serif" font-size="14" text-anchor="middle">right,target,3.14,0</text></g><g id="edge1" class="edge"><title>0--1</title><path fill="none" stroke="#000" d="M139.074,-177.433C131.061,-171.741 122.313,-164.977 115,-158 104.15,-147.649 93.588,-134.413 85.9022,-124.019"/><text x="148" y="-146.3" font-family="Times,serif" font-size="14" text-anchor="middle">AB,first,0,0</text></g><g id="node3" class="node"><title>2</title><ellipse cx="130" cy="-18" fill="none" stroke="#000" rx="69.316" ry="18"/><text x="130" y="-14.3" font-family="Times,serif" font-size="14" text-anchor="middle">left,target,0,3.14</text></g><g id="edge2" class="edge"><title>1--2</title><path fill="none" stroke="#000" d="M65.9408,-87.8576C62.2821,-77.4176 59.9666,-64.1763 66,-54 71.4252,-44.8496 80.1808,-37.9358 89.497,-32.7761"/><text x="123.5" y="-58.3" font-family="Times,serif" font-size="14" text-anchor="middle">BC,second,3.14,3.14</text></g><g id="edge3" class="edge"><title>2--0</title><path fill="none" stroke="#000" d="M161.908,-33.9936C169.53,-39.1972 176.697,-45.8284 181,-54 202.536,-94.8987 191.875,-113.075 181,-158 179.489,-164.243 176.661,-170.62 173.686,-176.191"/><text x="246" y="-102.3" font-family="Times,serif" font-size="14" text-anchor="middle">CA,third,3.14,3.14</text></g></g></svg>