<svg xmlns="http://www.w3.org/2000/svg" xmlns:xlink="http://www.w3.org/1999/xlink" width="424" height="116pt" viewBox="0 0 318 116"><g id="graph0" class="graph" transform="scale(1 1) rotate(0) translate(4 112)"><title>G</title><polygon fill="#fff" stroke="none" points="-4 4 -4 -112 314 -112 314 4 -4 4"/><g id="node1" class="node"><title>0</title><ellipse cx="146" cy="-90" fill="none" stroke="#000" rx="146.331" ry="18"/><text x="146" y="-86.3" font-family="Times,serif" font-size="14" text-anchor="middle">Sunny,Yellow$$$SPACE$$$thing,1,2</text></g><g id="edge1" class="edge"><title>0-&gt;0</title><path fill="none" stroke="#000" d="M243.245,-103.465C279.82,-103.945 310,-99.457 310,-90 310,-81.4296 285.214,-76.9398 253.343,-76.5308"/><polygon fill="#000" stroke="#000" points="253.243 -73.031 243.245 -76.535 253.246 -80.031 253.243 -73.031"/></g><g id="node2" class="node"><title>1</title><ellipse cx="146" cy="-18" fill="none" stroke="#000" rx="140.082" ry="18"/><text x="146" y="-14.3" font-family="Times,serif" font-size="14" text-anchor="middle">Rainy,Grey$$$SPACE$$$things,3,4</text></g><g id="edge2" class="edge"><title>0-&gt;1</title><path fill="none" stroke="#000" d="M140.084,-71.6966C139.289,-63.9827 139.062,-54.7125 139.405,-46.1124"/><polygon fill="#000" stroke="#000" points="142.898 -46.324 140.105 -36.104 135.915 -45.836 142.898 -46.324"/></g><g id="edge3" class="edge"><title>1-&gt;0</title><path fill="none" stroke="#000" d="M151.895,-36.1043C152.701,-43.7913 152.937,-53.0537 152.604,-61.6651"/><polygon fill="#000" stroke="#000" points="149.109 -61.48 151.916 -71.697 156.092 -61.96 149.109 -61.48"/></g><g id="edge4" class="edge"><title>1-&gt;1</title><path fill="none" stroke="#000" d="M239.294,-31.4596C274.708,-31.9787 304,-27.4922 304,-18 304,-9.43478 280.15,-4.94529 249.472,-4.53151"/><polygon fill="#000" stroke="#000" points="249.291 -1.032 239.294 -4.54 249.297 -8.032 249.291 -1.032"/></g></g></svg>