<svg xmlns="http://www.w3.org/2000/svg" xmlns:xlink="http://www.w3.org/1999/xlink" width="551pt" height="836pt" viewBox="0 0 551 836"><g id="graph0" class="graph" transform="scale(1 1) rotate(0) translate(4 832)"><title>G</title><polygon fill="#fff" stroke="none" points="-4 4 -4 -832 547 -832 547 4 -4 4"/><g id="node1" class="node"><title>0</title><ellipse cx="390" cy="-810" fill="none" stroke="#000" rx="38.021" ry="18"/><text x="390" y="-806.3" font-family="Times,serif" font-size="14" text-anchor="middle">A,E,0,0</text></g><g id="node2" class="node"><title>1</title><ellipse cx="309" cy="-722" fill="none" stroke="#000" rx="52.468" ry="18"/><text x="309" y="-718.3" font-family="Times,serif" font-size="14" text-anchor="middle">B,D,1.1,2.2</text></g><g id="edge1" class="edge"><title>0--1</title><path fill="none" stroke="#000" d="M364.351,-796.501C354.295,-790.688 343.222,-783.045 335,-774 326.042,-764.145 319.338,-750.634 314.983,-739.994"/><text x="355.5" y="-762.3" font-family="Times,serif" font-size="14" text-anchor="middle">a,A,0,0</text></g><g id="node6" class="node"><title>5</title><ellipse cx="291" cy="-106" fill="none" stroke="#000" rx="34.171" ry="18"/><text x="291" y="-102.3" font-family="Times,serif" font-size="14" text-anchor="middle">a,e,0,0</text></g><g id="edge6" class="edge"><title>0--5</title><path fill="none" stroke="#000" d="M417.603,-797.307C444.702,-783.759 482,-758.638 482,-723 482,-723 482,-723 482,-193 482,-124.996 380.085,-110.453 325.147,-107.554"/><text x="512.5" y="-454.3" font-family="Times,serif" font-size="14" text-anchor="middle">f,F,27.5,33</text></g><g id="node3" class="node"><title>2</title><ellipse cx="129" cy="-634" fill="none" stroke="#000" rx="51.493" ry="18"/><text x="129" y="-630.3" font-family="Times,serif" font-size="14" text-anchor="middle">C,C,2.2,4.4</text></g><g id="edge2" class="edge"><title>1--2</title><path fill="none" stroke="#000" d="M278.596,-707.203C264.663,-700.828 247.956,-693.11 233,-686 207.392,-673.827 178.443,-659.592 157.602,-649.259"/><text x="264" y="-674.3" font-family="Times,serif" font-size="14" text-anchor="middle">b,B,5.5,6.6</text></g><g id="node7" class="node"><title>6</title><ellipse cx="291" cy="-282" fill="none" stroke="#000" rx="49.094" ry="18"/><text x="291" y="-278.3" font-family="Times,serif" font-size="14" text-anchor="middle">b,d,3.3,4.4</text></g><g id="edge7" class="edge"><title>1--6</title><path fill="none" stroke="#000" d="M309,-703.867C309,-686.51 309,-658.889 309,-635 309,-635 309,-635 309,-369 309,-344.593 301.969,-317.101 296.695,-299.914"/><text x="342" y="-498.3" font-family="Times,serif" font-size="14" text-anchor="middle">g,G,33,39.6</text></g><g id="node4" class="node"><title>3</title><ellipse cx="129" cy="-546" fill="none" stroke="#000" rx="52.468" ry="18"/><text x="129" y="-542.3" font-family="Times,serif" font-size="14" text-anchor="middle">D,B,3.3,6.6</text></g><g id="edge3" class="edge"><title>2--3</title><path fill="none" stroke="#000" d="M129,-615.597C129,-600.578 129,-579.009 129,-564.084"/><text x="161" y="-586.3" font-family="Times,serif" font-size="14" text-anchor="middle">c,C,11,13.2</text></g><g id="node8" class="node"><title>7</title><ellipse cx="146" cy="-18" fill="none" stroke="#000" rx="48.144" ry="18"/><text x="146" y="-14.3" font-family="Times,serif" font-size="14" text-anchor="middle">c,c,6.6,8.8</text></g><g id="edge8" class="edge"><title>2--7</title><path fill="none" stroke="#000" d="M86.7606,-623.537C49.1387,-612.32 0,-589.528 0,-547 0,-547 0,-547 0,-105 0,-56.902 59.5537,-35.1621 102.59,-25.7313"/><text x="38" y="-322.3" font-family="Times,serif" font-size="14" text-anchor="middle">h,H,38.5,46.2</text></g><g id="node5" class="node"><title>4</title><ellipse cx="224" cy="-458" fill="none" stroke="#000" rx="51.493" ry="18"/><text x="224" y="-454.3" font-family="Times,serif" font-size="14" text-anchor="middle">E,A,4.4,8.8</text></g><g id="edge4" class="edge"><title>3--4</title><path fill="none" stroke="#000" d="M146.869,-528.824C163.853,-513.449 189.253,-490.455 206.211,-475.103"/><text x="224" y="-498.3" font-family="Times,serif" font-size="14" text-anchor="middle">d,D,16.5,19.8</text></g><g id="node9" class="node"><title>8</title><ellipse cx="291" cy="-194" fill="none" stroke="#000" rx="53.418" ry="18"/><text x="291" y="-190.3" font-family="Times,serif" font-size="14" text-anchor="middle">d,b,9.9,13.2</text></g><g id="edge9" class="edge"><title>3--8</title><path fill="none" stroke="#000" d="M116.767,-528.494C105.659,-511.843 91,-484.954 91,-459 91,-459 91,-459 91,-281 91,-263.472 196.012,-226.191 253.85,-206.986"/><text x="120" y="-366.3" font-family="Times,serif" font-size="14" text-anchor="middle">i,I,44,52.8</text></g><g id="edge5" class="edge"><title>4--0</title><path fill="none" stroke="#000" d="M271.906,-464.636C310.681,-470.149 361.197,-479.8 376,-494 392.963,-510.271 390,-521.495 390,-545 390,-723 390,-723 390,-723 390,-746.889 390,-774.51 390,-791.867"/><text x="422" y="-630.3" font-family="Times,serif" font-size="14" text-anchor="middle">e,E,22,26.4</text></g><g id="node10" class="node"><title>9</title><ellipse cx="224" cy="-370" fill="none" stroke="#000" rx="57.293" ry="18"/><text x="224" y="-366.3" font-family="Times,serif" font-size="14" text-anchor="middle">e,a,13.2,17.6</text></g><g id="edge10" class="edge"><title>4--9</title><path fill="none" stroke="#000" d="M224,-439.597C224,-424.578 224,-403.009 224,-388.084"/><text x="258.5" y="-410.3" font-family="Times,serif" font-size="14" text-anchor="middle">j,J,49.5,59.4</text></g><g id="edge11" class="edge"><title>5--7</title><path fill="none" stroke="#000" d="M268.978,-91.9385C242.516,-76.2442 198.245,-49.9869 170.661,-33.6268"/><text x="259.5" y="-58.3" font-family="Times,serif" font-size="14" text-anchor="middle">k,K,55,66</text></g><g id="edge12" class="edge"><title>6--8</title><path fill="none" stroke="#000" d="M291,-263.597C291,-248.578 291,-227.009 291,-212.084"/><text x="327" y="-234.3" font-family="Times,serif" font-size="14" text-anchor="middle">l,L,60.5,72.6</text></g><g id="edge13" class="edge"><title>7--9</title><path fill="none" stroke="#000" d="M146,-36.1328C146,-53.4896 146,-81.1111 146,-105 146,-283 146,-283 146,-283 146,-314.243 174.594,-339.18 197.157,-353.993"/><text x="182.5" y="-190.3" font-family="Times,serif" font-size="14" text-anchor="middle">m,M,66,79.2</text></g><g id="edge14" class="edge"><title>8--5</title><path fill="none" stroke="#000" d="M291,-175.597C291,-160.578 291,-139.009 291,-124.084"/><text x="329" y="-146.3" font-family="Times,serif" font-size="14" text-anchor="middle">n,N,71.5,85.8</text></g><g id="edge15" class="edge"><title>9--6</title><path fill="none" stroke="#000" d="M221.872,-351.621C221.462,-341.092 222.591,-327.84 229,-318 235.544,-307.953 246.03,-300.495 256.531,-295.106"/><text x="262" y="-322.3" font-family="Times,serif" font-size="14" text-anchor="middle">o,O,77,92.4</text></g></g></svg>