<svg xmlns="http://www.w3.org/2000/svg" xmlns:xlink="http://www.w3.org/1999/xlink" width="115pt" height="188pt" viewBox="0 0 115 188"><g id="graph0" class="graph" transform="scale(1 1) rotate(0) translate(4 184)"><title>G</title><polygon fill="#fff" stroke="none" points="-4 4 -4 -184 111 -184 111 4 -4 4"/><g id="node1" class="node"><title>0</title><ellipse cx="65" cy="-162" fill="none" stroke="#000" rx="32.246" ry="18"/><text x="65" y="-158.3" font-family="Times,serif" font-size="14" text-anchor="middle">Karen</text></g><g id="node2" class="node"><title>1</title><ellipse cx="34" cy="-90" fill="none" stroke="#000" rx="34.171" ry="18"/><text x="34" y="-86.3" font-family="Times,serif" font-size="14" text-anchor="middle">Kristel</text></g><g id="edge1" class="edge"><title>0--1</title><path fill="none" stroke="#000" d="M57.6534,-144.411C52.7834,-133.414 46.4122,-119.027 41.5092,-107.956"/></g><g id="node3" class="node"><title>2</title><ellipse cx="65" cy="-18" fill="none" stroke="#000" rx="42.37" ry="18"/><text x="65" y="-14.3" font-family="Times,serif" font-size="14" text-anchor="middle">Kathleen</text></g><g id="edge2" class="edge"><title>1--2</title><path fill="none" stroke="#000" d="M41.3466,-72.411C46.2166,-61.4141 52.5878,-47.0274 57.4908,-35.9562"/></g><g id="edge3" class="edge"><title>2--0</title><path fill="none" stroke="#000" d="M69.8691,-36.0209C72.5642,-46.3345 75.6374,-59.8114 77,-72 78.7776,-87.9009 78.7776,-92.0991 77,-108 75.6374,-120.189 72.5642,-133.665 69.8691,-143.979"/></g></g></svg>