<svg xmlns="http://www.w3.org/2000/svg" xmlns:xlink="http://www.w3.org/1999/xlink" width="80pt" height="116pt" viewBox="0 0 80 116"><g id="graph0" class="graph" transform="scale(1 1) rotate(0) translate(4 112)"><title>G</title><polygon fill="#fff" stroke="none" points="-4 4 -4 -112 76 -112 76 4 -4 4"/><g id="node1" class="node"><title>0</title><ellipse cx="27" cy="-90" fill="none" stroke="#000" rx="27" ry="18"/><text x="27" y="-86.3" font-family="Times,serif" font-size="14" text-anchor="middle">0</text></g><g id="edge1" class="edge"><title>0-&gt;0</title><path fill="none" stroke="#000" d="M46.895,-102.432C59.688,-105.675 72,-101.531 72,-90 72,-81.6218 65.5006,-77.1433 57.0395,-76.5644"/><polygon fill="#000" stroke="#000" points="56.502 -73.1 46.895 -77.568 57.191 -80.067 56.502 -73.1"/></g><g id="node2" class="node"><title>1</title><ellipse cx="27" cy="-18" fill="none" stroke="#000" rx="27" ry="18"/><text x="27" y="-14.3" font-family="Times,serif" font-size="14" text-anchor="middle">1</text></g><g id="edge2" class="edge"><title>0-&gt;1</title><path fill="none" stroke="#000" d="M21.1601,-72.411C20.2975,-64.507 20.0481,-54.8518 20.4119,-45.9352"/><polygon fill="#000" stroke="#000" points="23.903 -46.179 21.121 -35.956 16.921 -45.683 23.903 -46.179"/></g><g id="edge3" class="edge"><title>1-&gt;0</title><path fill="none" stroke="#000" d="M32.8794,-35.9562C33.7139,-43.8272 33.9485,-53.3739 33.5831,-62.1869"/><polygon fill="#000" stroke="#000" points="30.074 -62.184 32.84 -72.411 37.056 -62.691 30.074 -62.184"/></g><g id="edge4" class="edge"><title>1-&gt;1</title><path fill="none" stroke="#000" d="M46.895,-30.4321C59.688,-33.6753 72,-29.5312 72,-18 72,-9.62183 65.5006,-5.14331 57.0395,-4.56444"/><polygon fill="#000" stroke="#000" points="56.502 -1.1 46.895 -5.568 57.191 -8.066 56.502 -1.1"/></g></g></svg>